# xmcd
#
# Track frame offsets:
#	150
#	7660
#	29792
#	49687
#	76322
#	97537
#	114922
#	127400
#	141487
#	153755
#	172302
#	187445
#	204685
#	221085
#	234397
#
# Disc length: 3195 seconds
#
# Revision: 0
# Processed by: cddbd v1.5.2PL0 Copyright (c) Steve Scherf et al.
# Submitted via: dBpowerAMP V4.0
#
DISCID=d50c790f
DTITLE=Adge Cutler and The Wurzels - Cutler of The West
DYEAR=2003
DGENRE=National Folk
TTITLE0=Drink Up Thy Zider
TTITLE1=The Charlton Mackrell Jug Band
TTITLE2=In The Haymaking Time
TTITLE3=Five Foot Flirt
TTITLE4=Thee's Got'n Where Thee Cassn't Back'n Hassn't?
TTITLE5=Dorset is Beautiful
TTITLE6=Up The Clump
TTITLE7=Drink Up Thy Zider (play on)
TTITLE8=The Chandler's Wife
TTITLE9=The Bristol Song
TTITLE10=The Marrow Song (oh what a beauty)
TTITLE11=A Pub With No Beer
TTITLE12=Oh! Sir Jasper
TTITLE13=The Wurple-Diddle-I-Doo-Song
TTITLE14=Drink Up Thy Zider (play off)
EXTD=Original Recording 1968 - Live at Webbingdon Country Club, Loxton, Zummerzet.
EXTT0=
EXTT1=
EXTT2=
EXTT3=
EXTT4=
EXTT5=
EXTT6=
EXTT7=
EXTT8=
EXTT9=
EXTT10=
EXTT11=
EXTT12=
EXTT13=
EXTT14=
PLAYORDER=
